<svg xmlns="http://www.w3.org/2000/svg" viewBox="0 0 242.88 60" width="120" height="30" style="display:block"><defs><clipPath id="217e9adb07"><path d="M 24 17 L 33 17 L 33 60 L 24 60 Z"/></clipPath></defs><g id="a48ea66dfc"><g class="logo-fill"><g transform="translate(41.106473, 36)"><path d="M 2.0625 -28.453125 L 10.3125 -28.453125 C 14.257812 -28.453125 17.632812 -27.097656 20.4375 -24.390625 C 23.25 -21.691406 24.65625 -18.304688 24.65625 -14.234375 C 24.65625 -10.148438 23.257812 -6.753906 20.46875 -4.046875 C 17.675781 -1.347656 14.289062 0 10.3125 0 L 2.0625 0 Z M 8.546875 -5.796875 L 9.546875 -5.796875 C 11.921875 -5.796875 13.859375 -6.59375 15.359375 -8.1875 C 16.867188 -9.789062 17.632812 -11.796875 17.65625 -14.203125 C 17.65625 -16.617188 16.898438 -18.628906 15.390625 -20.234375 C 13.890625 -21.847656 11.941406 -22.65625 9.546875 -22.65625 L 8.546875 -22.65625 Z M 8.546875 -5.796875"/></g><g transform="translate(63.614185, 36)"><path d="M 3.28125 -2.1875 C 1.625 -3.988281 0.796875 -6.203125 0.796875 -8.828125 C 0.796875 -11.453125 1.625 -13.671875 3.28125 -15.484375 C 4.9375 -17.296875 7.039062 -18.203125 9.59375 -18.203125 C 11.9375 -18.203125 13.863281 -17.46875 15.375 -16 L 15.375 -17.6875 L 21.484375 -17.6875 L 21.484375 0 L 15.453125 0 L 15.453125 -2 L 15.375 -2 C 13.863281 -0.320312 11.9375 0.515625 9.59375 0.515625 C 7.039062 0.515625 4.9375 -0.382812 3.28125 -2.1875 Z M 8.46875 -11.828125 C 7.675781 -11.046875 7.28125 -10.046875 7.28125 -8.828125 C 7.28125 -7.609375 7.65625 -6.613281 8.40625 -5.84375 C 9.164062 -5.070312 10.171875 -4.6875 11.421875 -4.6875 C 12.609375 -4.6875 13.585938 -5.078125 14.359375 -5.859375 C 15.128906 -6.640625 15.515625 -7.628906 15.515625 -8.828125 C 15.515625 -10.046875 15.117188 -11.046875 14.328125 -11.828125 C 13.535156 -12.609375 12.566406 -13 11.421875 -13 C 10.242188 -13 9.257812 -12.609375 8.46875 -11.828125 Z M 8.46875 -11.828125"/></g><g transform="translate(84.226069, 36)"><path d="M 2.0625 0 L 2.0625 -17.6875 L 8.171875 -17.6875 L 8.171875 -15.828125 L 8.234375 -15.828125 C 9.828125 -17.410156 11.519531 -18.203125 13.3125 -18.203125 C 14.59375 -18.203125 15.796875 -17.9375 16.921875 -17.40625 C 18.054688 -16.882812 18.910156 -16.070312 19.484375 -14.96875 C 21.273438 -17.125 23.226562 -18.203125 25.34375 -18.203125 C 27.226562 -18.203125 28.847656 -17.671875 30.203125 -16.609375 C 31.566406 -15.554688 32.25 -13.90625 32.25 -11.65625 L 32.25 0 L 26.140625 0 L 26.140625 -10 C 26.140625 -10.945312 25.878906 -11.734375 25.359375 -12.359375 C 24.847656 -12.992188 24.070312 -13.3125 23.03125 -13.3125 C 22.132812 -13.3125 21.453125 -13.039062 20.984375 -12.5 C 20.515625 -11.957031 20.253906 -11.304688 20.203125 -10.546875 L 20.203125 0 L 14.109375 0 L 14.109375 -10 C 14.109375 -10.945312 13.847656 -11.734375 13.328125 -12.359375 C 12.804688 -12.992188 12.03125 -13.3125 11 -13.3125 C 10.0625 -13.3125 9.351562 -13.015625 8.875 -12.421875 C 8.40625 -11.835938 8.171875 -11.144531 8.171875 -10.34375 L 8.171875 0 Z M 2.0625 0"/>
      </g><g transform="translate(115.247768, 36)"><path d="M 9.765625 -18.203125 C 10.773438 -18.203125 11.769531 -18.085938 12.75 -17.859375 C 13.738281 -17.628906 14.476562 -17.398438 14.96875 -17.171875 L 15.6875 -16.828125 L 13.6875 -12.828125 C 12.3125 -13.566406 11.003906 -13.9375 9.765625 -13.9375 C 9.066406 -13.9375 8.570312 -13.859375 8.28125 -13.703125 C 8 -13.554688 7.859375 -13.273438 7.859375 -12.859375 C 7.859375 -12.765625 7.867188 -12.671875 7.890625 -12.578125 C 7.921875 -12.492188 7.96875 -12.410156 8.03125 -12.328125 C 8.101562 -12.242188 8.164062 -12.171875 8.21875 -12.109375 C 8.28125 -12.054688 8.378906 -11.992188 8.515625 -11.921875 C 8.648438 -11.859375 8.757812 -11.804688 8.84375 -11.765625 C 8.925781 -11.734375 9.054688 -11.679688 9.234375 -11.609375 C 9.421875 -11.546875 9.5625 -11.5 9.65625 -11.46875 C 9.75 -11.4375 9.90625 -11.382812 10.125 -11.3125 C 10.34375 -11.238281 10.507812 -11.191406 10.625 -11.171875 C 11.332031 -10.960938 11.953125 -10.734375 12.484375 -10.484375 C 13.015625 -10.234375 13.570312 -9.890625 14.15625 -9.453125 C 14.738281 -9.015625 15.191406 -8.460938 15.515625 -7.796875 C 15.835938 -7.128906 16 -6.367188 16 -5.515625 C 16 -1.492188 13.207031 0.515625 7.625 0.515625 C 6.351562 0.515625 5.148438 0.320312 4.015625 -0.0625 C 2.878906 -0.457031 2.054688 -0.847656 1.546875 -1.234375 L 0.796875 -1.859375 L 3.28125 -6.03125 C 3.457031 -5.875 3.695312 -5.6875 4 -5.46875 C 4.300781 -5.25 4.84375 -4.945312 5.625 -4.5625 C 6.40625 -4.1875 7.082031 -4 7.65625 -4 C 8.914062 -4 9.546875 -4.425781 9.546875 -5.28125 C 9.546875 -5.664062 9.382812 -5.96875 9.0625 -6.1875 C 8.75 -6.40625 8.207031 -6.648438 7.4375 -6.921875 C 6.664062 -7.203125 6.0625 -7.457031 5.625 -7.6875 C 4.519531 -8.257812 3.644531 -8.90625 3 -9.625 C 2.351562 -10.351562 2.03125 -11.316406 2.03125 -12.515625 C 2.03125 -14.304688 2.722656 -15.703125 4.109375 -16.703125 C 5.503906 -17.703125 7.390625 -18.203125 9.765625 -18.203125 Z M 9.765625 -18.203125"/>
      </g><g transform="translate(129.275953, 36)"><path d="M 0.28125 -22.765625 L 0.28125 -28.453125 L 20.28125 -28.453125 L 20.28125 -22.765625 L 13.515625 -22.765625 L 13.515625 0 L 7.03125 0 L 7.03125 -22.765625 Z M 0.28125 -22.765625"/>
      </g><g transform="translate(146.888984, 36)"><path d="M 19.96875 -8 L 7.140625 -8 C 7.140625 -6.757812 7.539062 -5.835938 8.34375 -5.234375 C 9.144531 -4.640625 10.019531 -4.34375 10.96875 -4.34375 C 11.957031 -4.34375 12.738281 -4.472656 13.3125 -4.734375 C 13.882812 -5.003906 14.539062 -5.53125 15.28125 -6.3125 L 19.6875 -4.109375 C 17.851562 -1.023438 14.796875 0.515625 10.515625 0.515625 C 7.847656 0.515625 5.5625 -0.394531 3.65625 -2.21875 C 1.75 -4.050781 0.796875 -6.253906 0.796875 -8.828125 C 0.796875 -11.398438 1.75 -13.601562 3.65625 -15.4375 C 5.5625 -17.28125 7.847656 -18.203125 10.515625 -18.203125 C 13.316406 -18.203125 15.597656 -17.390625 17.359375 -15.765625 C 19.117188 -14.148438 20 -11.835938 20 -8.828125 C 20 -8.410156 19.988281 -8.132812 19.96875 -8 Z M 7.3125 -11.375 L 14.03125 -11.375 C 13.894531 -12.300781 13.53125 -13.007812 12.9375 -13.5 C 12.351562 -13.988281 11.601562 -14.234375 10.6875 -14.234375 C 9.675781 -14.234375 8.867188 -13.96875 8.265625 -13.4375 C 7.671875 -12.914062 7.351562 -12.226562 7.3125 -11.375 Z M 7.3125 -11.375"/>
      </g><g transform="translate(164.743296, 36)"><path d="M 11.484375 -13.203125 C 10.335938 -13.203125 9.347656 -12.773438 8.515625 -11.921875 C 7.691406 -11.078125 7.28125 -10.054688 7.28125 -8.859375 C 7.28125 -7.640625 7.691406 -6.601562 8.515625 -5.75 C 9.347656 -4.90625 10.335938 -4.484375 11.484375 -4.484375 C 12.035156 -4.484375 12.554688 -4.550781 13.046875 -4.6875 C 13.546875 -4.820312 13.910156 -4.960938 14.140625 -5.109375 L 14.453125 -5.3125 L 16.515625 -1.0625 C 16.359375 -0.945312 16.132812 -0.800781 15.84375 -0.625 C 15.5625 -0.457031 14.90625 -0.226562 13.875 0.0625 C 12.851562 0.363281 11.757812 0.515625 10.59375 0.515625 C 7.988281 0.515625 5.703125 -0.394531 3.734375 -2.21875 C 1.773438 -4.050781 0.796875 -6.242188 0.796875 -8.796875 C 0.796875 -11.367188 1.773438 -13.578125 3.734375 -15.421875 C 5.703125 -17.273438 7.988281 -18.203125 10.59375 -18.203125 C 11.757812 -18.203125 12.835938 -18.0625 13.828125 -17.78125 C 14.816406 -17.507812 15.519531 -17.238281 15.9375 -16.96875 L 16.515625 -16.546875 L 14.453125 -12.375 C 13.691406 -12.925781 12.703125 -13.203125 11.484375 -13.203125 Z M 11.484375 -13.203125"/>
      </g><g transform="translate(178.737019, 36)"><path d="M 2.0625 0 L 2.0625 -29.65625 L 8.171875 -29.65625 L 8.171875 -15.828125 L 8.234375 -15.828125 C 9.828125 -17.410156 11.519531 -18.203125 13.3125 -18.203125 C 14.1875 -18.203125 15.050781 -18.085938 15.90625 -17.859375 C 16.769531 -17.628906 17.597656 -17.269531 18.390625 -16.78125 C 19.191406 -16.300781 19.835938 -15.617188 20.328125 -14.734375 C 20.816406 -13.859375 21.0625 -12.832031 21.0625 -11.65625 L 21.0625 0 L 14.96875 0 L 14.96875 -10 C 14.96875 -10.914062 14.671875 -11.71875 14.078125 -12.40625 C 13.492188 -13.101562 12.734375 -13.453125 11.796875 -13.453125 C 10.878906 -13.453125 10.046875 -13.09375 9.296875 -12.375 C 8.546875 -11.664062 8.171875 -10.875 8.171875 -10 L 8.171875 0 Z M 2.0625 0"/>
      </g></g><path class="logo-stroke" d="M 0 5 L 84 5" style="stroke-width:6;stroke-linecap:butt;stroke-linejoin:miter;stroke:#000;stroke-opacity:1;stroke-miterlimit:4;fill:none;" transform="matrix(0.744329,0,0,0.744329,24.652404,55)"/><g clip-path="url(#217e9adb07)"><path class="logo-stroke" d="M 0 5 L 82 5" style="stroke-width:6;stroke-linecap:butt;stroke-linejoin:miter;stroke:#000;stroke-opacity:1;stroke-miterlimit:4;fill:none;" transform="matrix(0,0.743956,-0.743956,0,32.129238,20)"/></g><path class="logo-stroke" d="M 0 5 L 84 5" style="stroke-width:6;stroke-linecap:butt;stroke-linejoin:miter;stroke:#000;stroke-opacity:1;stroke-miterlimit:4;fill:none;" transform="matrix(-0.744329,0,0,-0.744329,217.06846,7)"/><path class="logo-stroke" d="M 0 5 L 82 5" style="stroke-width:6;stroke-linecap:butt;stroke-linejoin:miter;stroke:#000;stroke-opacity:1;stroke-miterlimit:4;fill:none;" transform="matrix(0,-0.743956,0.743956,0,209.591632,40)"/></g><style>.logo-fill path { fill: #000; transition: fill 0.3s; } .logo-stroke { stroke: #000; transition: stroke 0.3s; } .dark .logo-fill path { fill: #fff; } .dark .logo-stroke { stroke: #fff; }</style></svg>